# File created by Blade
# Date/Time:  Wed Jan 21 14:28:11 2015
# Frame Rate: 120.000 fps
#------------------------------------------------------
:FULLY-SPECIFIED
:DEGREES
820
root 18.706371 35.470042 -21.347083 -170.941330 -3.710285 -178.959696
Spine -18.500887 -0.558237 1.044716
Head 7.573510 -3.378695 0.569925
LeftShoulder -11.771471 -36.555889 23.278313
LeftArm 4.702036 7.499314 -5.730804
LeftForeArm 16.265561 -0.000000 -2.152450
LeftHand -8.098002 0.000000 -8.229549
LeftHandThumb1 -26.253704 0.000000 33.147579
RightShoulder -11.423729 -0.095733 -13.608467
RightArm 8.723453 34.257811 7.195182
RightForeArm -40.503666 0.000000 4.674431
RightHand -7.366614 -0.000000 13.202469
RightHandThumb1 -24.326973 -0.000000 -32.862282
LeftUpLeg -0.594832 8.444262 1.801347
LeftLeg -7.206137 -0.000000 0.000000
LeftFoot -19.593457 26.878921 -11.963865
LeftToeBase 27.307154 -0.000000 -0.000000
RightUpLeg -1.708191 -13.153250 -0.134091
RightLeg -4.199752 -0.000000 0.000000
RightFoot -20.008261 -22.487180 16.222623
RightToeBase 25.401354 -0.000000 -0.000000
821
root 18.707601 35.469806 -21.345576 -170.947426 -3.719743 -178.957821
Spine -18.496259 -0.560295 1.046426
Head 7.568758 -3.379055 0.562827
LeftShoulder -11.756797 -36.552792 23.268742
LeftArm 4.693044 7.488861 -5.724089
LeftForeArm 16.380204 -0.000000 -2.112280
LeftHand -8.186259 0.000000 -8.326230
LeftHandThumb1 -26.253704 0.000000 33.147579
RightShoulder -11.442066 -0.096847 -13.606205
RightArm 8.727093 34.225466 7.200156
RightForeArm -40.476594 -0.000000 4.691964
RightHand -7.369116 -0.000000 13.199649
RightHandThumb1 -24.326973 -0.000000 -32.862282
LeftUpLeg -0.597284 8.453576 1.808279
LeftLeg -7.199449 -0.000000 0.000000
LeftFoot -19.611195 26.895538 -11.856168
LeftToeBase 27.628376 -0.000000 -0.000000
RightUpLeg -1.704834 -13.162999 -0.129334
RightLeg -4.198980 -0.000000 0.000000
RightFoot -20.008497 -22.496955 16.227198
RightToeBase 25.349225 -0.000000 -0.000000
822
root 18.708354 35.470012 -21.344938 -170.960907 -3.728112 -178.955349
Spine -18.485679 -0.564832 1.052120
Head 7.564645 -3.390549 0.560638
LeftShoulder -11.753876 -36.526217 23.255594
LeftArm 4.707397 7.476862 -5.731359
LeftForeArm 16.370216 -0.000000 -2.111137
LeftHand -8.198734 -0.000000 -8.338043
LeftHandThumb1 -26.253704 0.000000 33.147579
RightShoulder -11.453180 -0.096942 -13.596563
RightArm 8.736519 34.209899 7.202223
RightForeArm -40.520484 -0.000000 4.702362
RightHand -7.412299 0.000000 13.174775
RightHandThumb1 -24.326973 -0.000000 -32.862282
LeftUpLeg -0.586637 8.440921 1.814880
LeftLeg -7.198066 -0.000000 0.000000
LeftFoot -19.608152 26.898559 -11.851537
LeftToeBase 27.600355 -0.000000 -0.000000
RightUpLeg -1.692791 -13.173523 -0.128384
RightLeg -4.193032 -0.000000 0.000000
RightFoot -20.014151 -22.477412 16.216987
RightToeBase 25.418229 -0.000000 -0.000000
823
root 18.707967 35.470258 -21.344004 -170.967551 -3.727587 -178.960392
Spine -18.486227 -0.559066 1.052176
Head 7.572434 -3.397592 0.538076
LeftShoulder -11.746454 -36.501156 23.238974
LeftArm 4.723651 7.485727 -5.750788
LeftForeArm 16.265898 -0.000000 -2.141212
LeftHand -8.137929 -0.000000 -8.274302
LeftHandThumb1 -26.253704 0.000000 33.147579
RightShoulder -11.472028 -0.111715 -13.594911
RightArm 8.761654 34.205756 7.217216
RightForeArm -40.507825 -0.000000 4.704979
RightHand -7.425503 -0.000000 13.155208
RightHandThumb1 -24.326973 -0.000000 -32.862282
LeftUpLeg -0.583016 8.442224 1.806559
LeftLeg -7.194904 -0.000000 0.000000
LeftFoot -19.589616 26.874944 -11.944002
LeftToeBase 27.339725 -0.000000 -0.000000
RightUpLeg -1.694708 -13.168318 -0.130565
RightLeg -4.180979 -0.000000 0.000000
RightFoot -20.011306 -22.494550 16.299800
RightToeBase 25.201952 -0.000000 -0.000000
824
root 18.708949 35.470129 -21.342710 -170.976007 -3.726801 -178.957072
Spine -18.480354 -0.569520 1.060815
Head 7.573745 -3.371429 0.537361
LeftShoulder -11.767587 -36.477445 23.250318
LeftArm 4.729031 7.491623 -5.773572
LeftForeArm 16.269583 0.000000 -2.132353
LeftHand -8.138768 0.000000 -8.259135
LeftHandThumb1 -26.253704 0.000000 33.147579
RightShoulder -11.497337 -0.170086 -13.587395
RightArm 8.802620 34.243991 7.257843
RightForeArm -40.500595 -0.000000 4.758992
RightHand -7.427834 -0.000000 13.193152
RightHandThumb1 -24.326973 -0.000000 -32.862282
LeftUpLeg -0.582419 8.448686 1.814972
LeftLeg -7.182019 -0.000000 0.000000
LeftFoot -19.608108 26.892978 -11.846720
LeftToeBase 27.583930 -0.000000 -0.000000
RightUpLeg -1.687887 -13.164402 -0.131698
RightLeg -4.180970 -0.000000 0.000000
RightFoot -20.022178 -22.486795 16.241801
RightToeBase 25.360933 -0.000000 -0.000000
825
root 18.709339 35.470281 -21.341489 -170.986092 -3.727273 -178.959155
Spine -18.474805 -0.575970 1.061504
Head 7.588060 -3.346456 0.535147
LeftShoulder -11.766719 -36.484420 23.249900
LeftArm 4.720616 7.516986 -5.784158
LeftForeArm 16.277338 -0.000000 -2.128183
LeftHand -8.125096 -0.000000 -8.270126
LeftHandThumb1 -26.253704 0.000000 33.147579
RightShoulder -11.507296 -0.175124 -13.581576
RightArm 8.819119 34.213918 7.267814
RightForeArm -40.488051 -0.000000 4.779460
RightHand -7.416470 -0.000000 13.186049
RightHandThumb1 -24.326973 -0.000000 -32.862282
LeftUpLeg -0.575587 8.436109 1.813690
LeftLeg -7.177890 -0.000000 0.000000
LeftFoot -19.603927 26.868255 -11.959037
LeftToeBase 27.334600 -0.000000 -0.000000
RightUpLeg -1.686308 -13.175568 -0.129941
RightLeg -4.172719 -0.000000 0.000000
RightFoot -20.026544 -22.494945 16.225290
RightToeBase 25.381786 -0.000000 -0.000000
826
root 18.709721 35.470353 -21.340643 -171.003450 -3.724501 -178.958541
Spine -18.460928 -0.565933 1.067611
Head 7.601581 -3.335912 0.522688
LeftShoulder -11.752756 -36.471497 23.208966
LeftArm 4.735112 7.501864 -5.768350
LeftForeArm 16.391782 0.000000 -2.107071
LeftHand -8.155455 0.000000 -8.355394
LeftHandThumb1 -26.253704 0.000000 33.147579
RightShoulder -11.511646 -0.164817 -13.581211
RightArm 8.803394 34.167869 7.250741
RightForeArm -40.432111 -0.000000 4.764881
RightHand -7.370854 -0.000000 13.133163
RightHandThumb1 -24.326973 -0.000000 -32.862282
LeftUpLeg -0.559054 8.426676 1.816618
LeftLeg -7.178377 -0.000000 0.000000
LeftFoot -19.593763 26.888429 -11.950121
LeftToeBase 27.304089 -0.000000 -0.000000
RightUpLeg -1.672847 -13.168398 -0.131847
RightLeg -4.169414 -0.000000 0.000000
RightFoot -20.030225 -22.516233 16.216173
RightToeBase 25.365896 -0.000000 -0.000000
